<svg width="25" height="18" viewBox="0 0 25 18" fill="none" xmlns="http://www.w3.org/2000/svg">
<path fill-rule="evenodd" clip-rule="evenodd" d="M1.13961 0.0287688C0.696759 0.135218 0.310234 0.454237 0.118757 0.871249C-0.0287497 1.19248 -0.0227366 1.75789 0.131488 2.07127C0.28031 2.37366 0.55395 2.64269 0.85554 2.78311L1.09813 2.89604H12.0202H22.9423L23.1849 2.78311C23.4865 2.64269 23.7601 2.37366 23.909 2.07127C24.0632 1.75789 24.0692 1.19248 23.9217 0.871249C23.7789 0.56017 23.515 0.289208 23.2082 0.138553L22.9423 0.00791114L12.1142 0.000723707C6.1587 -0.00322234 1.22013 0.00936743 1.13961 0.0287688ZM1.07464 7.59141C0.681351 7.71214 0.32522 8.01449 0.130173 8.39326C0.0413866 8.56562 0.0212806 8.67841 0.0213745 9.00396C0.0214685 9.34374 0.0398364 9.43826 0.144688 9.63814C0.291867 9.91864 0.550473 10.1746 0.839756 10.3261L1.05115 10.4367H12.0202H22.9893L23.2242 10.3116C23.7474 10.0329 24.0209 9.58398 24.0209 9.00396C24.0209 8.42393 23.7474 7.97498 23.2242 7.69631L22.9893 7.57117L12.0907 7.56327C6.09645 7.5589 1.13923 7.57159 1.07464 7.59141ZM0.786579 15.2643C-0.303376 15.8285 -0.249822 17.3294 0.880344 17.8916L1.09813 18H12.0202H22.9423L23.2082 17.8694C23.515 17.7187 23.7789 17.4477 23.9217 17.1367C24.0692 16.8154 24.0632 16.25 23.909 15.9366C23.7601 15.6343 23.4865 15.3652 23.1849 15.2248L22.9423 15.1119L12.0126 15.1114L1.08286 15.1109L0.786579 15.2643Z" fill="#333333"/>
</svg>
