<svg xmlns="http://www.w3.org/2000/svg" xmlns:xlink="http://www.w3.org/1999/xlink" version="1.1" x="0px" y="0px" viewBox="0 0 100 125" enable-background="new 0 0 100 100" xml:space="preserve"><path d="M92.613,48.874c-2.759,2.756-7.244,2.755-10.001-0.001c-4.135-4.135-10.864-4.135-15,0l0.001,0  c-2.759,2.756-7.244,2.755-10.001-0.001c-4.135-4.134-10.865-4.135-15,0c-2.757,2.756-7.243,2.756-10,0  c-4.136-4.135-10.865-4.135-15,0c-2.757,2.756-7.243,2.756-10,0l-2.5,2.5c2.068,2.067,4.784,3.101,7.5,3.101  c2.716,0,5.432-1.033,7.5-3.1c2.757-2.758,7.244-2.758,10,0c2.068,2.067,4.784,3.102,7.5,3.101c2.716,0,5.432-1.033,7.5-3.101  c2.757-2.757,7.243-2.757,10,0c2.068,2.067,4.784,3.102,7.501,3.102c2.715,0,5.432-1.034,7.499-3.101  c2.757-2.757,7.243-2.758,10.001,0c2.067,2.067,4.783,3.102,7.5,3.101c2.716,0,5.432-1.033,7.499-3.101L92.613,48.874z"/><text x="0" y="115" fill="#287555" font-size="5px" font-weight="bold" font-family="'Helvetica Neue', Helvetica, Arial-Unicode, Arial, Sans-serif">Created by Thomas Hirter</text><text x="0" y="120" fill="#287555" font-size="5px" font-weight="bold" font-family="'Helvetica Neue', Helvetica, Arial-Unicode, Arial, Sans-serif">from the Noun Project</text></svg>